<mxfile host="app.diagrams.net" modified="2023-05-10T06:52:56.778Z" agent="Mozilla/5.0 (Windows NT 10.0; Win64; x64) AppleWebKit/537.36 (KHTML, like Gecko) Chrome/113.0.0.0 Safari/537.36" etag="YdW_IPrtU2s6ykr5oFR_" version="21.2.9" type="device">
  <diagram name="Page-1" id="kyU8nx5tQti0M2kBHb_b">
    <mxGraphModel dx="1050" dy="651" grid="1" gridSize="10" guides="1" tooltips="1" connect="1" arrows="1" fold="1" page="1" pageScale="1" pageWidth="1200" pageHeight="1600" math="0" shadow="0">
      <root>
        <mxCell id="0" />
        <mxCell id="1" parent="0" />
        <mxCell id="eBqpRPjEkAuVMLsEW_iu-1" style="edgeStyle=orthogonalEdgeStyle;rounded=0;orthogonalLoop=1;jettySize=auto;html=1;entryX=0.5;entryY=0;entryDx=0;entryDy=0;" edge="1" parent="1" source="eBqpRPjEkAuVMLsEW_iu-2" target="eBqpRPjEkAuVMLsEW_iu-4">
          <mxGeometry relative="1" as="geometry" />
        </mxCell>
        <mxCell id="eBqpRPjEkAuVMLsEW_iu-2" value="&lt;b style=&quot;font-size: 20px;&quot;&gt;Input&amp;nbsp;&lt;/b&gt;&lt;br style=&quot;font-size: 20px;&quot;&gt;187x1" style="rounded=1;whiteSpace=wrap;html=1;fontSize=20;rotation=-90;" vertex="1" parent="1">
          <mxGeometry x="180" y="280" width="220" height="60" as="geometry" />
        </mxCell>
        <mxCell id="eBqpRPjEkAuVMLsEW_iu-3" style="edgeStyle=orthogonalEdgeStyle;rounded=0;orthogonalLoop=1;jettySize=auto;html=1;" edge="1" parent="1" source="eBqpRPjEkAuVMLsEW_iu-4" target="eBqpRPjEkAuVMLsEW_iu-6">
          <mxGeometry relative="1" as="geometry" />
        </mxCell>
        <mxCell id="eBqpRPjEkAuVMLsEW_iu-4" value="&lt;b&gt;Conv1D&amp;nbsp;&lt;br&gt;&lt;/b&gt;" style="rounded=1;whiteSpace=wrap;html=1;fontSize=20;rotation=-90;" vertex="1" parent="1">
          <mxGeometry x="270" y="280" width="220" height="60" as="geometry" />
        </mxCell>
        <mxCell id="eBqpRPjEkAuVMLsEW_iu-5" value="&lt;b&gt;&lt;font style=&quot;font-size: 21px;&quot;&gt;3x&lt;/font&gt;&lt;/b&gt;" style="text;html=1;align=center;verticalAlign=middle;resizable=0;points=[];autosize=1;strokeColor=none;fillColor=none;rotation=-90;" vertex="1" parent="1">
          <mxGeometry x="355" y="420" width="50" height="40" as="geometry" />
        </mxCell>
        <mxCell id="eBqpRPjEkAuVMLsEW_iu-36" style="edgeStyle=orthogonalEdgeStyle;rounded=0;orthogonalLoop=1;jettySize=auto;html=1;entryX=0.5;entryY=0;entryDx=0;entryDy=0;" edge="1" parent="1" source="eBqpRPjEkAuVMLsEW_iu-6" target="eBqpRPjEkAuVMLsEW_iu-8">
          <mxGeometry relative="1" as="geometry" />
        </mxCell>
        <mxCell id="eBqpRPjEkAuVMLsEW_iu-6" value="&lt;b&gt;Max-pooling&lt;br&gt;&lt;/b&gt;" style="rounded=1;whiteSpace=wrap;html=1;fontSize=20;rotation=-90;" vertex="1" parent="1">
          <mxGeometry x="360" y="280" width="220" height="60" as="geometry" />
        </mxCell>
        <mxCell id="eBqpRPjEkAuVMLsEW_iu-31" value="" style="shape=curlyBracket;whiteSpace=wrap;html=1;rounded=1;labelPosition=left;verticalLabelPosition=middle;align=right;verticalAlign=middle;rotation=-90;size=0.5;fontStyle=0;fontSize=22;strokeWidth=3;" vertex="1" parent="1">
          <mxGeometry x="627.5" y="373.82" width="20" height="190" as="geometry" />
        </mxCell>
        <mxCell id="eBqpRPjEkAuVMLsEW_iu-32" value="&lt;b&gt;&lt;font style=&quot;font-size: 16px;&quot;&gt;Temporal Dependancy&amp;nbsp;&lt;/font&gt;&lt;/b&gt;" style="text;html=1;align=center;verticalAlign=middle;resizable=0;points=[];autosize=1;strokeColor=none;fillColor=none;" vertex="1" parent="1">
          <mxGeometry x="540" y="478.82" width="200" height="30" as="geometry" />
        </mxCell>
        <mxCell id="eBqpRPjEkAuVMLsEW_iu-33" value="" style="shape=curlyBracket;whiteSpace=wrap;html=1;rounded=1;labelPosition=left;verticalLabelPosition=middle;align=right;verticalAlign=middle;rotation=-90;size=0.5;fontStyle=0;fontSize=22;strokeWidth=3;" vertex="1" parent="1">
          <mxGeometry x="370" y="330" width="20" height="280" as="geometry" />
        </mxCell>
        <mxCell id="eBqpRPjEkAuVMLsEW_iu-34" value="&lt;b&gt;&lt;font style=&quot;font-size: 16px;&quot;&gt;Feature Extraction&lt;/font&gt;&lt;/b&gt;" style="text;html=1;align=center;verticalAlign=middle;resizable=0;points=[];autosize=1;strokeColor=none;fillColor=none;" vertex="1" parent="1">
          <mxGeometry x="300" y="478.82" width="160" height="30" as="geometry" />
        </mxCell>
        <mxCell id="eBqpRPjEkAuVMLsEW_iu-37" value="" style="group" vertex="1" connectable="0" parent="1">
          <mxGeometry x="543.6800000000001" y="200" width="196.31999999999994" height="220" as="geometry" />
        </mxCell>
        <mxCell id="eBqpRPjEkAuVMLsEW_iu-8" value="&lt;b&gt;&lt;br&gt;&lt;/b&gt;" style="rounded=1;whiteSpace=wrap;html=1;fontSize=20;rotation=-90;fillColor=#CCCCCC;arcSize=15;" vertex="1" parent="eBqpRPjEkAuVMLsEW_iu-37">
          <mxGeometry x="-11.840000000000032" y="11.840000000000003" width="220" height="196.32" as="geometry" />
        </mxCell>
        <mxCell id="eBqpRPjEkAuVMLsEW_iu-9" value="" style="group;fontSize=1;" vertex="1" connectable="0" parent="eBqpRPjEkAuVMLsEW_iu-37">
          <mxGeometry x="26.319999999999936" y="11.180000000000007" width="80" height="162" as="geometry" />
        </mxCell>
        <mxCell id="eBqpRPjEkAuVMLsEW_iu-10" value="" style="group" vertex="1" connectable="0" parent="eBqpRPjEkAuVMLsEW_iu-9">
          <mxGeometry x="20" y="8.523264137437359" width="60" height="144.963135289907" as="geometry" />
        </mxCell>
        <mxCell id="eBqpRPjEkAuVMLsEW_iu-11" value="" style="rounded=1;whiteSpace=wrap;html=1;" vertex="1" parent="eBqpRPjEkAuVMLsEW_iu-10">
          <mxGeometry x="39.3134328358209" width="20.68656716417911" height="20.709019327129568" as="geometry" />
        </mxCell>
        <mxCell id="eBqpRPjEkAuVMLsEW_iu-12" value="" style="edgeStyle=orthogonalEdgeStyle;rounded=0;orthogonalLoop=1;jettySize=auto;html=1;" edge="1" parent="eBqpRPjEkAuVMLsEW_iu-10" source="eBqpRPjEkAuVMLsEW_iu-13" target="eBqpRPjEkAuVMLsEW_iu-11">
          <mxGeometry relative="1" as="geometry" />
        </mxCell>
        <mxCell id="eBqpRPjEkAuVMLsEW_iu-13" value="X0" style="ellipse;whiteSpace=wrap;html=1;fontSize=8;fontStyle=1" vertex="1" parent="eBqpRPjEkAuVMLsEW_iu-10">
          <mxGeometry x="0.6426690079016826" y="2.588627415891196" width="16.187884108867433" height="15.531764495347174" as="geometry" />
        </mxCell>
        <mxCell id="eBqpRPjEkAuVMLsEW_iu-14" value="" style="rounded=1;whiteSpace=wrap;html=1;" vertex="1" parent="eBqpRPjEkAuVMLsEW_iu-10">
          <mxGeometry x="38.992098331870054" y="41.418038654259135" width="20.68656716417911" height="20.709019327129568" as="geometry" />
        </mxCell>
        <mxCell id="eBqpRPjEkAuVMLsEW_iu-15" value="" style="edgeStyle=orthogonalEdgeStyle;rounded=0;orthogonalLoop=1;jettySize=auto;html=1;" edge="1" parent="eBqpRPjEkAuVMLsEW_iu-10" source="eBqpRPjEkAuVMLsEW_iu-11" target="eBqpRPjEkAuVMLsEW_iu-14">
          <mxGeometry relative="1" as="geometry" />
        </mxCell>
        <mxCell id="eBqpRPjEkAuVMLsEW_iu-16" value="" style="edgeStyle=orthogonalEdgeStyle;rounded=0;orthogonalLoop=1;jettySize=auto;html=1;" edge="1" parent="eBqpRPjEkAuVMLsEW_iu-10" source="eBqpRPjEkAuVMLsEW_iu-17" target="eBqpRPjEkAuVMLsEW_iu-14">
          <mxGeometry relative="1" as="geometry" />
        </mxCell>
        <mxCell id="eBqpRPjEkAuVMLsEW_iu-17" value="X1" style="ellipse;whiteSpace=wrap;html=1;fontStyle=1;fontSize=8;" vertex="1" parent="eBqpRPjEkAuVMLsEW_iu-10">
          <mxGeometry x="0.3213345039508413" y="44.006666070150324" width="16.187884108867433" height="15.531764495347174" as="geometry" />
        </mxCell>
        <mxCell id="eBqpRPjEkAuVMLsEW_iu-18" value="" style="edgeStyle=orthogonalEdgeStyle;rounded=0;orthogonalLoop=1;jettySize=auto;html=1;" edge="1" parent="eBqpRPjEkAuVMLsEW_iu-10" source="eBqpRPjEkAuVMLsEW_iu-19" target="eBqpRPjEkAuVMLsEW_iu-25">
          <mxGeometry relative="1" as="geometry" />
        </mxCell>
        <mxCell id="eBqpRPjEkAuVMLsEW_iu-19" value="" style="rounded=1;whiteSpace=wrap;html=1;" vertex="1" parent="eBqpRPjEkAuVMLsEW_iu-10">
          <mxGeometry x="38.992098331870054" y="82.83607730851827" width="20.68656716417911" height="20.709019327129568" as="geometry" />
        </mxCell>
        <mxCell id="eBqpRPjEkAuVMLsEW_iu-20" value="" style="edgeStyle=orthogonalEdgeStyle;rounded=0;orthogonalLoop=1;jettySize=auto;html=1;" edge="1" parent="eBqpRPjEkAuVMLsEW_iu-10" source="eBqpRPjEkAuVMLsEW_iu-14" target="eBqpRPjEkAuVMLsEW_iu-19">
          <mxGeometry relative="1" as="geometry" />
        </mxCell>
        <mxCell id="eBqpRPjEkAuVMLsEW_iu-21" value="" style="edgeStyle=orthogonalEdgeStyle;rounded=0;orthogonalLoop=1;jettySize=auto;html=1;" edge="1" parent="eBqpRPjEkAuVMLsEW_iu-10" source="eBqpRPjEkAuVMLsEW_iu-22" target="eBqpRPjEkAuVMLsEW_iu-19">
          <mxGeometry relative="1" as="geometry" />
        </mxCell>
        <mxCell id="eBqpRPjEkAuVMLsEW_iu-22" value="X2" style="ellipse;whiteSpace=wrap;html=1;fontStyle=1;fontSize=8;" vertex="1" parent="eBqpRPjEkAuVMLsEW_iu-10">
          <mxGeometry x="0.3213345039508413" y="85.42470472440945" width="16.187884108867433" height="15.531764495347174" as="geometry" />
        </mxCell>
        <mxCell id="eBqpRPjEkAuVMLsEW_iu-23" value="" style="edgeStyle=orthogonalEdgeStyle;rounded=0;orthogonalLoop=1;jettySize=auto;html=1;" edge="1" parent="eBqpRPjEkAuVMLsEW_iu-10" source="eBqpRPjEkAuVMLsEW_iu-24">
          <mxGeometry relative="1" as="geometry">
            <mxPoint x="38.670763827919245" y="134.64566929133866" as="targetPoint" />
          </mxGeometry>
        </mxCell>
        <mxCell id="eBqpRPjEkAuVMLsEW_iu-24" value="X3" style="ellipse;whiteSpace=wrap;html=1;fontStyle=1;fontSize=8;" vertex="1" parent="eBqpRPjEkAuVMLsEW_iu-10">
          <mxGeometry y="126.84274337866859" width="16.187884108867433" height="15.531764495347174" as="geometry" />
        </mxCell>
        <mxCell id="eBqpRPjEkAuVMLsEW_iu-25" value="" style="rounded=1;whiteSpace=wrap;html=1;" vertex="1" parent="eBqpRPjEkAuVMLsEW_iu-10">
          <mxGeometry x="39.31209833186995" y="124.25411596277742" width="20.68656716417911" height="20.709019327129568" as="geometry" />
        </mxCell>
        <mxCell id="eBqpRPjEkAuVMLsEW_iu-26" value="" style="group" vertex="1" connectable="0" parent="eBqpRPjEkAuVMLsEW_iu-9">
          <mxGeometry width="9" height="162" as="geometry" />
        </mxCell>
        <mxCell id="eBqpRPjEkAuVMLsEW_iu-27" value="" style="endArrow=classic;html=1;rounded=0;" edge="1" parent="eBqpRPjEkAuVMLsEW_iu-26">
          <mxGeometry width="50" height="50" relative="1" as="geometry">
            <mxPoint y="162" as="sourcePoint" />
            <mxPoint as="targetPoint" />
          </mxGeometry>
        </mxCell>
        <mxCell id="eBqpRPjEkAuVMLsEW_iu-28" value="" style="endArrow=classic;html=1;rounded=0;" edge="1" parent="eBqpRPjEkAuVMLsEW_iu-26">
          <mxGeometry width="50" height="50" relative="1" as="geometry">
            <mxPoint x="9" y="1.0632124352331704" as="sourcePoint" />
            <mxPoint x="9" y="160.94478164322723" as="targetPoint" />
          </mxGeometry>
        </mxCell>
        <mxCell id="eBqpRPjEkAuVMLsEW_iu-29" value="Bidirectional LSTM" style="text;html=1;align=center;verticalAlign=middle;resizable=0;points=[];autosize=1;strokeColor=none;fillColor=none;fontStyle=1;fontSize=16;" vertex="1" parent="eBqpRPjEkAuVMLsEW_iu-37">
          <mxGeometry x="13.819999999999936" y="174.70999999999998" width="170" height="30" as="geometry" />
        </mxCell>
        <mxCell id="eBqpRPjEkAuVMLsEW_iu-30" value="" style="endArrow=classic;html=1;rounded=0;edgeStyle=orthogonalEdgeStyle;entryX=0.5;entryY=1;entryDx=0;entryDy=0;" edge="1" parent="eBqpRPjEkAuVMLsEW_iu-37" target="eBqpRPjEkAuVMLsEW_iu-8">
          <mxGeometry width="50" height="50" relative="1" as="geometry">
            <mxPoint x="106.31999999999994" y="156.15999999999997" as="sourcePoint" />
            <mxPoint x="176.31999999999994" y="156" as="targetPoint" />
            <Array as="points">
              <mxPoint x="176.31999999999994" y="156" />
              <mxPoint x="176.31999999999994" y="110" />
            </Array>
          </mxGeometry>
        </mxCell>
        <mxCell id="eBqpRPjEkAuVMLsEW_iu-38" style="edgeStyle=orthogonalEdgeStyle;rounded=0;orthogonalLoop=1;jettySize=auto;html=1;entryX=0.5;entryY=0;entryDx=0;entryDy=0;" edge="1" parent="1" source="eBqpRPjEkAuVMLsEW_iu-39" target="eBqpRPjEkAuVMLsEW_iu-41">
          <mxGeometry relative="1" as="geometry" />
        </mxCell>
        <mxCell id="eBqpRPjEkAuVMLsEW_iu-39" value="&lt;b&gt;Dropout (0.5)&lt;br&gt;&lt;/b&gt;" style="rounded=1;whiteSpace=wrap;html=1;fontSize=20;rotation=-90;" vertex="1" parent="1">
          <mxGeometry x="710" y="280" width="220" height="60" as="geometry" />
        </mxCell>
        <mxCell id="eBqpRPjEkAuVMLsEW_iu-40" style="edgeStyle=orthogonalEdgeStyle;rounded=0;orthogonalLoop=1;jettySize=auto;html=1;" edge="1" parent="1" source="eBqpRPjEkAuVMLsEW_iu-41" target="eBqpRPjEkAuVMLsEW_iu-42">
          <mxGeometry relative="1" as="geometry" />
        </mxCell>
        <mxCell id="eBqpRPjEkAuVMLsEW_iu-41" value="&lt;b&gt;Flatten&lt;br&gt;&lt;/b&gt;" style="rounded=1;whiteSpace=wrap;html=1;fontSize=20;rotation=-90;" vertex="1" parent="1">
          <mxGeometry x="800" y="280" width="220" height="60" as="geometry" />
        </mxCell>
        <mxCell id="eBqpRPjEkAuVMLsEW_iu-42" value="&lt;b&gt;Dense (5 class)&lt;br&gt;&lt;/b&gt;" style="rounded=1;whiteSpace=wrap;html=1;fontSize=20;rotation=-90;" vertex="1" parent="1">
          <mxGeometry x="890" y="280" width="220" height="60" as="geometry" />
        </mxCell>
        <mxCell id="eBqpRPjEkAuVMLsEW_iu-43" value="" style="shape=curlyBracket;whiteSpace=wrap;html=1;rounded=1;labelPosition=left;verticalLabelPosition=middle;align=right;verticalAlign=middle;rotation=-90;size=0.5;fontStyle=0;fontSize=22;strokeWidth=3;" vertex="1" parent="1">
          <mxGeometry x="910" y="337.5" width="20" height="265" as="geometry" />
        </mxCell>
        <mxCell id="eBqpRPjEkAuVMLsEW_iu-44" value="&lt;b&gt;&lt;font style=&quot;font-size: 16px;&quot;&gt;Classification&lt;/font&gt;&lt;/b&gt;" style="text;html=1;align=center;verticalAlign=middle;resizable=0;points=[];autosize=1;strokeColor=none;fillColor=none;" vertex="1" parent="1">
          <mxGeometry x="855" y="478.82" width="130" height="30" as="geometry" />
        </mxCell>
        <mxCell id="eBqpRPjEkAuVMLsEW_iu-45" style="edgeStyle=orthogonalEdgeStyle;rounded=0;orthogonalLoop=1;jettySize=auto;html=1;entryX=0.5;entryY=0;entryDx=0;entryDy=0;" edge="1" parent="1" source="eBqpRPjEkAuVMLsEW_iu-8" target="eBqpRPjEkAuVMLsEW_iu-39">
          <mxGeometry relative="1" as="geometry" />
        </mxCell>
      </root>
    </mxGraphModel>
  </diagram>
</mxfile>
